HIERARCHY
ROOT hip
{
	OFFSET 0.000000 0.000000 0.000000
	CHANNELS 6 Xposition Yposition Zposition Xrotation Zrotation Yrotation 
	JOINT abdomen
	{
		OFFSET 0.000000 3.422050 0.000000
		CHANNELS 3 Xrotation Zrotation Yrotation 
		JOINT chest
		{
			OFFSET 0.000000 8.486693 -0.684411
			CHANNELS 3 Xrotation Zrotation Yrotation 
			JOINT neck
			{
				OFFSET 0.000000 10.266162 -0.273764
				CHANNELS 3 Xrotation Zrotation Yrotation 
				JOINT head
				{
					OFFSET 0.000000 3.148285 0.000000
					CHANNELS 3 Xrotation Zrotation Yrotation 
					End Site
					{
						OFFSET 0.000000 3.148289 0.000000
					}
				}
			}
			JOINT lCollar
			{
				OFFSET 3.422053 6.707223 -0.821293
				CHANNELS 3 Yrotation Zrotation Xrotation 
				JOINT lShldr
				{
					OFFSET 3.285171 0.000000 0.000000
					CHANNELS 3 Zrotation Yrotation Xrotation 
					JOINT lForeArm
					{
						OFFSET 10.129278 0.000000 0.000000
						CHANNELS 3 Yrotation Zrotation Xrotation 
						JOINT lHand
						{
							OFFSET 8.486692 0.000000 0.000000
							CHANNELS 3 Zrotation Yrotation Xrotation 
							End Site
							{
								OFFSET 4.106464 0.000000 0.000000
							}
						}
					}
				}
			}
			JOINT rCollar
			{
				OFFSET -3.558935 6.707223 -0.821293
				CHANNELS 3 Yrotation Zrotation Xrotation 
				JOINT rShldr
				{
					OFFSET -3.148289 0.000000 0.000000
					CHANNELS 3 Zrotation Yrotation Xrotation 
					JOINT rForeArm
					{
						OFFSET -10.266159 0.000000 0.000000
						CHANNELS 3 Yrotation Zrotation Xrotation 
						JOINT rHand
						{
							OFFSET -8.349810 0.000000 0.000000
							CHANNELS 3 Zrotation Yrotation Xrotation 
							End Site
							{
								OFFSET -4.106464 0.000000 0.000000
							}
						}
					}
				}
			}
		}
	}
	JOINT lThigh
	{
		OFFSET 5.338403 -1.642589 1.368821
		CHANNELS 3 Xrotation Zrotation Yrotation 
		JOINT lShin
		{
			OFFSET -2.053232 -20.121670 0.000000
			CHANNELS 3 Xrotation Zrotation Yrotation 
			JOINT lFoot
			{
				OFFSET 0.000000 -19.300380 -1.231939
				CHANNELS 3 Xrotation Yrotation Zrotation 
				End Site
				{
					OFFSET 0.000000 -2.463878 4.653993
				}
			}
		}
	}
	JOINT rThigh
	{
		OFFSET -5.338403 -1.642589 1.368821
		CHANNELS 3 Xrotation Zrotation Yrotation 
		JOINT rShin
		{
			OFFSET 2.053232 -20.121670 0.000000
			CHANNELS 3 Xrotation Zrotation Yrotation 
			JOINT rFoot
			{
				OFFSET 0.000000 -19.300380 -1.231939
				CHANNELS 3 Xrotation Yrotation Zrotation 
				End Site
				{
					OFFSET 0.000000 -2.463878 4.653993
				}
			}
		}
	}
}
MOTION
Frames: 18
Frame Time: 0.049989
19.995884 43.519489 2.110413 0.199953 0.000000 0.000000 0.070153 -0.061358 -0.040085 -0.909322 -0.137719 -0.585079 28.210571 0.000000 0.000000 -0.264035 0.000000 0.000000 7.688895 -4.900498 0.773297 -53.887783 7.756097 24.007860 -48.928585 -28.057491 -14.952393 -7.000325 0.000000 0.000000 -7.692362 4.896988 0.773203 53.883286 -7.758317 24.006573 48.923084 28.054810 -14.949429 6.996825 0.000000 0.000000 -2.124214 8.212689 4.152167 13.078233 -3.062464 -0.233164 -2.518382 -0.986814 3.576680 -1.564305 -6.345772 -8.440895 13.023112 5.876436 0.176146 -2.364174 3.596770 -8.913136 
19.995884 43.519489 2.049138 0.399916 0.000000 0.000000 0.519842 -0.061384 -0.040156 -1.209132 -0.137687 -0.585116 27.722279 0.000000 0.000000 -0.264035 0.000000 0.000000 7.688895 -4.900498 0.773297 -53.887783 7.756097 24.007860 -48.928585 -28.057491 -14.952393 -7.000325 0.000000 0.000000 -7.692362 4.896988 0.773203 53.883286 -7.758317 24.006573 48.923084 28.054810 -14.949429 6.996825 0.000000 0.000000 -2.488629 8.210112 4.058766 13.078233 -3.062464 -0.233164 -2.518382 -0.986814 3.576680 -1.933352 -6.338855 -8.275970 13.023113 5.876436 0.176146 -2.364174 3.596770 -8.913136 
19.995884 43.519489 1.987863 0.599890 0.000000 0.000000 0.969642 -0.061409 -0.040228 -1.508974 -0.137655 -0.585155 27.233603 0.000000 0.000000 -0.264035 0.000000 0.000000 7.688895 -4.900498 0.773297 -53.887783 7.756097 24.007860 -48.928585 -28.057491 -14.952393 -7.000325 0.000000 0.000000 -7.692362 4.896988 0.773203 53.883286 -7.758317 24.006573 48.923084 28.054810 -14.949429 6.996825 0.000000 0.000000 -2.853096 8.206948 3.965370 13.078233 -3.062464 -0.233164 -2.518382 -0.986814 3.576680 -2.302441 -6.330883 -8.111067 13.023112 5.876436 0.176146 -2.364174 3.596770 -8.913136 
19.995884 43.519489 1.926587 0.799872 0.000000 0.000000 1.419540 -0.061434 -0.040300 -1.808845 -0.137624 -0.585193 26.744553 0.000000 0.000000 -0.264035 0.000000 0.000000 7.688895 -4.900498 0.773297 -53.887783 7.756097 24.007860 -48.928585 -28.057491 -14.952393 -7.000325 0.000000 0.000000 -7.692362 4.896988 0.773203 53.883286 -7.758317 24.006573 48.923084 28.054810 -14.949429 6.996825 0.000000 0.000000 -3.217604 8.203192 3.871983 13.078233 -3.062464 -0.233164 -2.518382 -0.986814 3.576680 -2.671557 -6.321852 -7.946194 13.023112 5.876436 0.176146 -2.364174 3.596770 -8.913136 
19.995884 43.519489 1.865312 0.999861 0.000000 0.000000 1.869520 -0.061458 -0.040373 -2.108742 -0.137593 -0.585232 26.255159 0.000000 0.000000 -0.264035 0.000000 0.000000 7.688895 -4.900498 0.773297 -53.887783 7.756097 24.007860 -48.928585 -28.057491 -14.952393 -7.000325 0.000000 0.000000 -7.692362 4.896988 0.773203 53.883286 -7.758317 24.006573 48.923084 28.054810 -14.949429 6.996825 0.000000 0.000000 -3.582147 8.198851 3.778613 13.078233 -3.062464 -0.233164 -2.518382 -0.986814 3.576680 -3.040690 -6.311765 -7.781362 13.023111 5.876435 0.176146 -2.364174 3.596770 -8.913136 
19.995884 43.519489 1.804037 1.199856 0.000000 0.000000 2.319571 -0.061482 -0.040445 -2.408658 -0.137562 -0.585270 25.765429 0.000000 0.000000 -0.264035 0.000000 0.000000 7.688895 -4.900498 0.773297 -53.887783 7.756097 24.007860 -48.928585 -28.057491 -14.952393 -7.000325 0.000000 0.000000 -7.692362 4.896988 0.773203 53.883286 -7.758317 24.006573 48.923084 28.054810 -14.949429 6.996825 0.000000 0.000000 -3.946713 8.193918 3.685263 13.078233 -3.062464 -0.233164 -2.518382 -0.986814 3.576680 -3.409826 -6.300620 -7.616584 13.023111 5.876435 0.176146 -2.364174 3.596770 -8.913136 
19.995884 43.519489 1.742761 1.399856 0.000000 0.000000 2.769676 -0.061505 -0.040518 -2.708591 -0.137531 -0.585309 25.275383 0.000000 0.000000 -0.264035 0.000000 0.000000 7.688895 -4.900498 0.773297 -53.887783 7.756097 24.007860 -48.928585 -28.057491 -14.952393 -7.000325 0.000000 0.000000 -7.692362 4.896988 0.773203 53.883286 -7.758317 24.006573 48.923084 28.054810 -14.949429 6.996825 0.000000 0.000000 -4.311297 8.188399 3.591942 13.078233 -3.062464 -0.233164 -2.518382 -0.986814 3.576680 -3.778955 -6.288420 -7.451872 13.023113 5.876436 0.176146 -2.364174 3.596770 -8.913136 
19.995884 43.519489 1.681486 1.599860 0.000000 0.000000 3.219823 -0.061528 -0.040591 -3.008536 -0.137500 -0.585348 24.785042 0.000000 0.000000 -0.264035 0.000000 0.000000 7.688895 -4.900498 0.773297 -53.887783 7.756097 24.007860 -48.928585 -28.057491 -14.952393 -7.000325 0.000000 0.000000 -7.692362 4.896988 0.773203 53.883286 -7.758317 24.006573 48.923084 28.054810 -14.949429 6.996825 0.000000 0.000000 -4.675886 8.182291 3.498653 13.078233 -3.062464 -0.233164 -2.518382 -0.986814 3.576680 -4.148063 -6.275166 -7.287234 13.023112 5.876436 0.176146 -2.364174 3.596770 -8.913136 
19.995884 43.519489 1.620211 1.799866 0.000000 0.000000 3.669999 -0.061550 -0.040664 -3.308490 -0.137470 -0.585387 24.294415 0.000000 0.000000 -0.264035 0.000000 0.000000 7.688895 -4.900498 0.773297 -53.887783 7.756097 24.007860 -48.928585 -28.057491 -14.952393 -7.000325 0.000000 0.000000 -7.692362 4.896988 0.773203 53.883286 -7.758317 24.006573 48.923084 28.054810 -14.949429 6.996825 0.000000 0.000000 -5.040476 8.175598 3.405403 13.078233 -3.062464 -0.233164 -2.518382 -0.986814 3.576680 -4.517138 -6.260855 -7.122683 13.023112 5.876436 0.176146 -2.364174 3.596770 -8.913136 
19.995884 43.519489 1.558935 1.999874 0.000000 0.000000 4.120187 -0.061571 -0.040737 -3.608447 -0.137440 -0.585426 23.803537 0.000000 0.000000 -0.264035 0.000000 0.000000 7.688895 -4.900498 0.773297 -53.887783 7.756097 24.007860 -48.928585 -28.057491 -14.952393 -7.000325 0.000000 0.000000 -7.692362 4.896988 0.773203 53.883286 -7.758317 24.006573 48.923084 28.054810 -14.949429 6.996825 0.000000 0.000000 -5.405054 8.168316 3.312198 13.078233 -3.062464 -0.233164 -2.518382 -0.986814 3.576680 -4.886168 -6.245492 -6.958229 13.023111 5.876435 0.176146 -2.364174 3.596770 -8.913136 
19.995884 43.519489 1.497660 2.199882 0.000000 0.000000 4.570376 -0.061592 -0.040810 -3.908404 -0.137410 -0.585466 23.312410 0.000000 0.000000 -0.264035 0.000000 0.000000 7.688895 -4.900498 0.773297 -53.887783 7.756097 24.007860 -48.928585 -28.057491 -14.952393 -7.000325 0.000000 0.000000 -7.692362 4.896988 0.773203 53.883286 -7.758317 24.006573 48.923084 28.054810 -14.949429 6.996825 0.000000 0.000000 -5.769613 8.160445 3.219044 13.078233 -3.062464 -0.233164 -2.518382 -0.986814 3.576680 -5.255142 -6.229075 -6.793881 13.023111 5.876435 0.176146 -2.364174 3.596770 -8.913136 
19.995884 43.519489 1.436385 2.399888 0.000000 0.000000 5.020552 -0.061612 -0.040884 -4.208357 -0.137380 -0.585505 22.821056 0.000000 0.000000 -0.264035 0.000000 0.000000 7.688895 -4.900498 0.773297 -53.887783 7.756097 24.007860 -48.928585 -28.057491 -14.952393 -7.000325 0.000000 0.000000 -7.692362 4.896988 0.773203 53.883286 -7.758317 24.006573 48.923084 28.054810 -14.949429 6.996825 0.000000 0.000000 -6.134142 8.151989 3.125945 13.078233 -3.062464 -0.233164 -2.518382 -0.986814 3.576680 -5.624046 -6.211607 -6.629653 13.023113 5.876436 0.176146 -2.364174 3.596770 -8.913136 
19.995884 43.519489 1.375109 2.599891 0.000000 0.000000 5.470699 -0.061632 -0.040958 -4.508304 -0.137350 -0.585545 22.329493 0.000000 0.000000 -0.264035 0.000000 0.000000 7.688895 -4.900498 0.773297 -53.887783 7.756097 24.007860 -48.928585 -28.057491 -14.952393 -7.000325 0.000000 0.000000 -7.692362 4.896988 0.773203 53.883286 -7.758317 24.006573 48.923084 28.054810 -14.949429 6.996825 0.000000 0.000000 -6.498636 8.142948 3.032909 13.078233 -3.062464 -0.233164 -2.518382 -0.986814 3.576680 -5.992868 -6.193090 -6.465555 13.023112 5.876436 0.176146 -2.364174 3.596770 -8.913136 
19.995884 43.519489 1.313834 2.799892 0.000000 0.000000 5.920805 -0.061651 -0.041031 -4.808237 -0.137321 -0.585585 21.837738 0.000000 0.000000 -0.264035 0.000000 0.000000 7.688895 -4.900498 0.773297 -53.887783 7.756097 24.007860 -48.928585 -28.057491 -14.952393 -7.000325 0.000000 0.000000 -7.692362 4.896988 0.773203 53.883286 -7.758317 24.006573 48.923084 28.054810 -14.949429 6.996825 0.000000 0.000000 -6.863082 8.133321 2.939940 13.078233 -3.062464 -0.233164 -2.518382 -0.986814 3.576680 -6.361598 -6.173524 -6.301597 13.023112 5.876436 0.176146 -2.364174 3.596770 -8.913136 
19.995884 43.519489 1.252559 2.999887 0.000000 0.000000 6.370854 -0.061669 -0.041105 -5.108153 -0.137292 -0.585625 21.345814 0.000000 0.000000 -0.264035 0.000000 0.000000 7.688895 -4.900498 0.773297 -53.887783 7.756097 24.007860 -48.928585 -28.057491 -14.952393 -7.000325 0.000000 0.000000 -7.692362 4.896988 0.773203 53.883286 -7.758317 24.006573 48.923084 28.054810 -14.949429 6.996825 0.000000 0.000000 -7.227479 8.123114 2.847046 13.078233 -3.062464 -0.233164 -2.518382 -0.986814 3.576680 -6.730221 -6.152913 -6.137791 13.023112 5.876436 0.176146 -2.364174 3.596770 -8.913136 
19.995884 43.519489 1.191283 3.199877 0.000000 0.000000 6.820837 -0.061687 -0.041180 -5.408049 -0.137263 -0.585665 20.853727 0.000000 0.000000 -0.264035 0.000000 0.000000 7.688895 -4.900498 0.773297 -53.887783 7.756097 24.007860 -48.928585 -28.057491 -14.952393 -7.000325 0.000000 0.000000 -7.692362 4.896988 0.773203 53.883286 -7.758317 24.006573 48.923084 28.054810 -14.949429 6.996825 0.000000 0.000000 -7.591807 8.112317 2.754230 13.078233 -3.062464 -0.233164 -2.518382 -0.986814 3.576680 -7.098727 -6.131255 -5.974146 13.023111 5.876435 0.176146 -2.364174 3.596770 -8.913136 
19.995884 43.519489 1.130008 3.399859 0.000000 0.000000 7.270733 -0.061705 -0.041254 -5.707920 -0.137234 -0.585706 20.361515 0.000000 0.000000 -0.264035 0.000000 0.000000 7.688895 -4.900498 0.773297 -53.887783 7.756097 24.007860 -48.928585 -28.057491 -14.952393 -7.000325 0.000000 0.000000 -7.692362 4.896988 0.773203 53.883286 -7.758317 24.006573 48.923084 28.054810 -14.949429 6.996825 0.000000 0.000000 -7.956065 8.100941 2.661499 13.078233 -3.062464 -0.233164 -2.518382 -0.986814 3.576680 -7.467103 -6.108555 -5.810674 13.023113 5.876436 0.176146 -2.364174 3.596770 -8.913136 
19.995884 43.519489 1.068733 3.599832 0.000000 0.000000 7.720533 -0.061721 -0.041328 -6.007763 -0.137206 -0.585746 19.869179 0.000000 0.000000 -0.264035 0.000000 0.000000 7.688895 -4.900498 0.773297 -53.887783 7.756097 24.007860 -48.928585 -28.057491 -14.952393 -7.000325 0.000000 0.000000 -7.692362 4.896988 0.773203 53.883286 -7.758317 24.006573 48.923084 28.054810 -14.949429 6.996825 0.000000 0.000000 -8.320243 8.088983 2.568859 13.078233 -3.062464 -0.233164 -2.518382 -0.986814 3.576680 -7.835337 -6.084815 -5.647385 13.023112 5.876436 0.176146 -2.364174 3.596770 -8.913136 
